<svg width="17" height="17" viewBox="0 0 17 17" fill="none" xmlns="http://www.w3.org/2000/svg">
<path d="M15.6923 6.5375C16.4145 6.5375 17 7.11637 17 7.84384V9.15427C17 9.87573 16.4196 10.4606 15.6923 10.4606C15.6881 11.9057 14.5102 13.076 13.0657 13.076H2.62656C1.17596 13.076 0 11.9166 0 10.4528V6.54525C0 5.09653 1.17949 3.92212 2.62656 3.92212H13.0657C14.5138 3.92212 15.6882 5.07737 15.6923 6.5375ZM1.30769 6.53724V10.4608C1.30769 11.188 1.89046 11.7683 2.60936 11.7683H13.0829C13.7888 11.7683 14.3846 11.1829 14.3846 10.4608V6.53724C14.3846 5.81005 13.8018 5.22981 13.0829 5.22981H2.60936C1.90355 5.22981 1.30769 5.81516 1.30769 6.53724ZM2.61538 6.5375H10.4615V10.4606H2.61538V6.5375Z" fill="#4A4A4A"/>
</svg>
