<svg width="121" height="24" viewBox="0 0 121 24" fill="none" xmlns="http://www.w3.org/2000/svg">
<path fill-rule="evenodd" clip-rule="evenodd" d="M12 19.2371L4.58344 24L6.59988 15.1111L0 9.16745L8.6622 8.43778L12 0L15.3378 8.43778L24 9.16745L17.4001 15.1111L19.4166 24L12 19.2371Z" fill="#BDBDBD"/>
<path fill-rule="evenodd" clip-rule="evenodd" d="M36 19.2371L28.5834 24L30.5999 15.1111L24 9.16745L32.6622 8.43778L36 0L39.3378 8.43778L48 9.16745L41.4001 15.1111L43.4166 24L36 19.2371Z" fill="#BDBDBD"/>
<path fill-rule="evenodd" clip-rule="evenodd" d="M60.5 19.2371L52.7744 24L54.8749 15.1111L48 9.16745L57.0231 8.43778L60.5 0L63.9769 8.43778L73 9.16745L66.1251 15.1111L68.2256 24L60.5 19.2371Z" fill="#BDBDBD"/>
<path fill-rule="evenodd" clip-rule="evenodd" d="M85 19.2371L77.5834 24L79.5999 15.1111L73 9.16745L81.6622 8.43778L85 0L88.3378 8.43778L97 9.16745L90.4001 15.1111L92.4166 24L85 19.2371Z" fill="#BDBDBD"/>
<path fill-rule="evenodd" clip-rule="evenodd" d="M109 19.2371L101.583 24L103.6 15.1111L97 9.16745L105.662 8.43778L109 0L112.338 8.43778L121 9.16745L114.4 15.1111L116.417 24L109 19.2371Z" fill="#BDBDBD"/>
</svg>
