<svg xmlns="http://www.w3.org/2000/svg" width="17" height="17" fill="none" viewBox="0 0 17 17">
    <path fill="#4A4A4A" d="M1.41667 1.55556C1.43229 1.82298 1.41666 1.69142 1.41667 1.55556C1.41666 0.696446 2.04376 0 2.83333 0H4.25C5.03307 0 5.66667 0.690457 5.66667 1.55556H14.1667C15.7261 1.55556 17 2.93488 17 4.66667V10.8889C17 12.6084 15.7222 14 14.1667 14H2.83333C1.27394 14 0 12.6207 0 10.8889V4.66667C0 3.49653 0.590736 2.47962 1.41667 1.55556ZM4.25 3.11111V12.4444H14.1667C14.9415 12.4444 15.5833 11.7544 15.5833 10.8889V4.66667C15.5833 3.81263 14.951 3.11112 14.1667 3.11111H4.25ZM9.91667 10.8889C8.35186 10.8889 7.08333 9.496 7.08333 7.77778C7.08333 6.05956 8.35186 4.66667 9.91667 4.66667C11.4815 4.66667 12.75 6.05956 12.75 7.77778C12.75 9.496 11.4815 10.8889 9.91667 10.8889ZM9.91667 9.33333C10.6991 9.33333 11.3333 8.63689 11.3333 7.77778C11.3333 6.91867 10.6991 6.22222 9.91667 6.22222C9.13426 6.22222 8.5 6.91867 8.5 7.77778C8.5 8.63689 9.13426 9.33333 9.91667 9.33333Z"/>
</svg>
