<svg width="15" height="16" viewBox="0 0 15 16" fill="none" xmlns="http://www.w3.org/2000/svg">
<path d="M11.6999 11.558H3.2999C2.7899 11.558 2.3999 11.168 2.3999 10.658V5.25799C2.3999 4.74799 2.7899 4.35799 3.2999 4.35799H5.0999C5.1599 4.35799 5.2499 4.29799 5.2799 4.26799L5.6099 3.60799C5.7299 3.36799 6.0299 3.18799 6.2999 3.18799H8.6999C8.9699 3.18799 9.2699 3.36799 9.3899 3.60799L9.7199 4.26799C9.7499 4.32799 9.8399 4.35799 9.8999 4.35799H11.6999C12.2099 4.35799 12.5999 4.74799 12.5999 5.25799V10.658C12.5999 11.168 12.2099 11.558 11.6999 11.558V11.558ZM3.2999 4.95799C3.1199 4.95799 2.9999 5.07799 2.9999 5.25799V10.658C2.9999 10.838 3.1199 10.958 3.2999 10.958H11.6999C11.8799 10.958 11.9999 10.838 11.9999 10.658V5.25799C11.9999 5.07799 11.8799 4.95799 11.6999 4.95799H9.8999C9.6299 4.95799 9.3299 4.77799 9.2099 4.53799L8.8799 3.87799C8.8499 3.81799 8.7599 3.75799 8.6999 3.75799H6.2999C6.2399 3.75799 6.1499 3.81799 6.1199 3.84799L5.7899 4.50799C5.6699 4.77799 5.3699 4.95799 5.0999 4.95799H3.2999V4.95799Z" fill="#4E4E4E"/>
<path d="M7.4998 10.358C5.9998 10.358 4.7998 9.15801 4.7998 7.65801C4.7998 6.15801 5.9998 4.95801 7.4998 4.95801C8.9998 4.95801 10.1998 6.15801 10.1998 7.65801C10.1998 9.15801 8.9998 10.358 7.4998 10.358ZM7.4998 5.55801C6.3298 5.55801 5.3998 6.48801 5.3998 7.65801C5.3998 8.82801 6.3298 9.75801 7.4998 9.75801C8.6698 9.75801 9.5998 8.82801 9.5998 7.65801C9.5998 6.48801 8.6698 5.55801 7.4998 5.55801Z" fill="#4E4E4E"/>
<path d="M10.5002 5.85806C10.6659 5.85806 10.8002 5.72374 10.8002 5.55806C10.8002 5.39237 10.6659 5.25806 10.5002 5.25806C10.3345 5.25806 10.2002 5.39237 10.2002 5.55806C10.2002 5.72374 10.3345 5.85806 10.5002 5.85806Z" fill="#4E4E4E"/>
<path d="M3.6001 3.75806H4.8001V4.05806H3.6001V3.75806Z" fill="#4E4E4E"/>
<path d="M7.5 6.45796V6.15796C6.66 6.15796 6 6.81796 6 7.65796H6.3C6.3 6.99796 6.84 6.45796 7.5 6.45796Z" fill="#4E4E4E"/>
</svg>
