<svg width="17" height="17" viewBox="0 0 17 17" fill="none" xmlns="http://www.w3.org/2000/svg">
<path fill-rule="evenodd" clip-rule="evenodd" d="M2.80606 15.3616C1.26309 14.6533 0.354559 13.5872 0.0799287 12.1633C-0.433817 9.50638 1.6971 7.82355 1.6971 4.97873C2.3543 5.58375 2.68152 6.53701 2.68152 7.42662C4.53778 5.68552 5.46601 3.21054 5.46601 0C8.03571 1.27798 9.65379 3.28363 10.3186 6.01725C10.6917 5.3983 10.7601 4.56344 10.5239 3.51095C13.4195 4.54065 16.0076 11.464 11.7632 14.6984C10.7758 16.0799 9.01179 17 7 17C5.33073 17 3.83203 16.3665 2.80606 15.3616ZM9.88691 14.9178C10.7195 11.4568 9.78168 8.8167 7.07481 6.99919C7.45075 8.64019 7.09544 10.2169 6.00887 11.729C5.92356 10.5389 5.69666 9.61701 5.32917 8.96327C5.32917 9.72849 5.00292 10.492 4.34949 11.2527C4.26793 11.3485 4.18542 11.4442 4.10387 11.5409C3.42782 12.3329 3.16062 13.3284 3.31102 14.2823C4.29631 15.2184 5.58705 15.7857 7 15.7857C8.05609 15.7857 9.04389 15.4688 9.88691 14.9178Z" fill="#4A4A4A"/>
</svg>
