<svg width="18" height="10" viewBox="0 0 18 10" fill="none" xmlns="http://www.w3.org/2000/svg">
<path d="M9 9.16667C11.7967 9.16667 14.4575 7.65833 16.4667 4.99167C14.4392 2.32833 11.7842 0.833333 9 0.833333C6.20333 0.833333 3.5425 2.34167 1.53333 5.00833C3.56083 7.67167 6.21583 9.16667 9 9.16667ZM9 0C12.18 0 15.0825 1.7475 17.2083 4.59167C17.375 4.83333 17.375 5.14833 17.2083 5.39C15.0833 8.2525 12.18 10 9 10C5.82 10 2.9175 8.2525 0.791664 5.40833C0.624997 5.16667 0.624997 4.85167 0.791664 4.61C2.91666 1.7475 5.82 0 9 0ZM6.08333 4.995C6.465 5.28583 6.95 5.44583 7.47583 5.41167C8.49583 5.35083 9.3525 4.495 9.41416 3.47583C9.44031 2.97656 9.29083 2.4839 8.99166 2.08333C9.39114 2.08359 9.78634 2.16562 10.1529 2.32438C10.5195 2.48314 10.8497 2.71527 11.1232 3.00647C11.3966 3.29766 11.6076 3.64177 11.7431 4.01758C11.8785 4.39339 11.9356 4.79296 11.9108 5.19167C11.8655 5.89796 11.5645 6.56356 11.064 7.06401C10.5636 7.56446 9.89795 7.8655 9.19166 7.91083C8.79323 7.93561 8.39395 7.87862 8.01836 7.74336C7.64277 7.6081 7.29883 7.39743 7.00768 7.12432C6.71653 6.8512 6.48433 6.5214 6.32537 6.15522C6.16641 5.78903 6.08404 5.3942 6.08333 4.995Z" fill="#999999"/>
</svg>
