<svg width="20" height="20" viewBox="0 0 20 20" fill="none" xmlns="http://www.w3.org/2000/svg">
<path d="M6.352 12.6379C6.485 12.9939 2.813 16.2719 4.955 18.9289C5.456 19.5499 7.156 15.9539 9.57 14.3269C10.901 13.4279 14 11.5159 14 10.4589V3.61688C14 2.34588 9.086 0.999878 5.352 0.999878C3.983 0.999878 2 9.57588 2 10.9389C2 12.3059 6.221 12.2819 6.352 12.6379ZM15 12.5429C15.658 12.5429 18 12.1429 18 9.41988V4.57188C18 1.85088 15.658 1.55088 15 1.55088C14.343 1.55088 16 2.12288 16 3.81088V10.1839C16 11.9519 14.343 12.5429 15 12.5429Z" fill="#D52A2A"/>
</svg>
