<svg width="15" height="15" viewBox="0 0 15 15" fill="none" xmlns="http://www.w3.org/2000/svg">
<path d="M8.75 5.625H6.25C6.08424 5.625 5.92527 5.69085 5.80806 5.80806C5.69085 5.92527 5.625 6.08424 5.625 6.25V8.75C5.625 8.91576 5.69085 9.07473 5.80806 9.19194C5.92527 9.30915 6.08424 9.375 6.25 9.375H8.75C8.91576 9.375 9.07473 9.30915 9.19194 9.19194C9.30915 9.07473 9.375 8.91576 9.375 8.75V6.25C9.375 6.08424 9.30915 5.92527 9.19194 5.80806C9.07473 5.69085 8.91576 5.625 8.75 5.625ZM8.125 8.125H6.875V6.875H8.125V8.125ZM13.125 8.125C13.2908 8.125 13.4497 8.05915 13.5669 7.94194C13.6842 7.82473 13.75 7.66576 13.75 7.5C13.75 7.33424 13.6842 7.17527 13.5669 7.05806C13.4497 6.94085 13.2908 6.875 13.125 6.875H11.875V5.625H13.125C13.2908 5.625 13.4497 5.55915 13.5669 5.44194C13.6842 5.32473 13.75 5.16576 13.75 5C13.75 4.83424 13.6842 4.67527 13.5669 4.55806C13.4497 4.44085 13.2908 4.375 13.125 4.375H11.7625C11.6692 4.11288 11.5187 3.87481 11.3219 3.67806C11.1252 3.48132 10.8871 3.33082 10.625 3.2375V1.875C10.625 1.70924 10.5592 1.55027 10.4419 1.43306C10.3247 1.31585 10.1658 1.25 10 1.25C9.83424 1.25 9.67527 1.31585 9.55806 1.43306C9.44085 1.55027 9.375 1.70924 9.375 1.875V3.125H8.125V1.875C8.125 1.70924 8.05915 1.55027 7.94194 1.43306C7.82473 1.31585 7.66576 1.25 7.5 1.25C7.33424 1.25 7.17527 1.31585 7.05806 1.43306C6.94085 1.55027 6.875 1.70924 6.875 1.875V3.125H5.625V1.875C5.625 1.70924 5.55915 1.55027 5.44194 1.43306C5.32473 1.31585 5.16576 1.25 5 1.25C4.83424 1.25 4.67527 1.31585 4.55806 1.43306C4.44085 1.55027 4.375 1.70924 4.375 1.875V3.2375C4.11288 3.33082 3.87481 3.48132 3.67806 3.67806C3.48132 3.87481 3.33082 4.11288 3.2375 4.375H1.875C1.70924 4.375 1.55027 4.44085 1.43306 4.55806C1.31585 4.67527 1.25 4.83424 1.25 5C1.25 5.16576 1.31585 5.32473 1.43306 5.44194C1.55027 5.55915 1.70924 5.625 1.875 5.625H3.125V6.875H1.875C1.70924 6.875 1.55027 6.94085 1.43306 7.05806C1.31585 7.17527 1.25 7.33424 1.25 7.5C1.25 7.66576 1.31585 7.82473 1.43306 7.94194C1.55027 8.05915 1.70924 8.125 1.875 8.125H3.125V9.375H1.875C1.70924 9.375 1.55027 9.44085 1.43306 9.55806C1.31585 9.67527 1.25 9.83424 1.25 10C1.25 10.1658 1.31585 10.3247 1.43306 10.4419C1.55027 10.5592 1.70924 10.625 1.875 10.625H3.2375C3.33082 10.8871 3.48132 11.1252 3.67806 11.3219C3.87481 11.5187 4.11288 11.6692 4.375 11.7625V13.125C4.375 13.2908 4.44085 13.4497 4.55806 13.5669C4.67527 13.6842 4.83424 13.75 5 13.75C5.16576 13.75 5.32473 13.6842 5.44194 13.5669C5.55915 13.4497 5.625 13.2908 5.625 13.125V11.875H6.875V13.125C6.875 13.2908 6.94085 13.4497 7.05806 13.5669C7.17527 13.6842 7.33424 13.75 7.5 13.75C7.66576 13.75 7.82473 13.6842 7.94194 13.5669C8.05915 13.4497 8.125 13.2908 8.125 13.125V11.875H9.375V13.125C9.375 13.2908 9.44085 13.4497 9.55806 13.5669C9.67527 13.6842 9.83424 13.75 10 13.75C10.1658 13.75 10.3247 13.6842 10.4419 13.5669C10.5592 13.4497 10.625 13.2908 10.625 13.125V11.7625C10.8871 11.6692 11.1252 11.5187 11.3219 11.3219C11.5187 11.1252 11.6692 10.8871 11.7625 10.625H13.125C13.2908 10.625 13.4497 10.5592 13.5669 10.4419C13.6842 10.3247 13.75 10.1658 13.75 10C13.75 9.83424 13.6842 9.67527 13.5669 9.55806C13.4497 9.44085 13.2908 9.375 13.125 9.375H11.875V8.125H13.125ZM10.625 10C10.625 10.1658 10.5592 10.3247 10.4419 10.4419C10.3247 10.5592 10.1658 10.625 10 10.625H5C4.83424 10.625 4.67527 10.5592 4.55806 10.4419C4.44085 10.3247 4.375 10.1658 4.375 10V5C4.375 4.83424 4.44085 4.67527 4.55806 4.55806C4.67527 4.44085 4.83424 4.375 5 4.375H10C10.1658 4.375 10.3247 4.44085 10.4419 4.55806C10.5592 4.67527 10.625 4.83424 10.625 5V10Z" fill="#4E4E4E"/>
</svg>
