<svg width="75" height="15" viewBox="0 0 75 15" fill="none" xmlns="http://www.w3.org/2000/svg">
<path id="raiting_star_1" fill-rule="evenodd" clip-rule="evenodd" d="M7.5 12.0232L2.86465 15L4.12492 9.44444L0 5.72965L5.41388 5.27361L7.5 0L9.58612 5.27361L15 5.72965L10.8751 9.44444L12.1353 15L7.5 12.0232Z" fill="#FF8F00"/>
<path id="raiting_star_2" fill-rule="evenodd" clip-rule="evenodd" d="M22.5 12.0232L17.8647 15L19.1249 9.44444L15 5.72965L20.4139 5.27361L22.5 0L24.5861 5.27361L30 5.72965L25.8751 9.44444L27.1353 15L22.5 12.0232Z" fill="#FF8F00"/>
<path id="raiting_star_3" fill-rule="evenodd" clip-rule="evenodd" d="M37.5 12.0232L32.8647 15L34.1249 9.44444L30 5.72965L35.4139 5.27361L37.5 0L39.5861 5.27361L45 5.72965L40.8751 9.44444L42.1353 15L37.5 12.0232Z" fill="#FF8F00"/>
<path id="raiting_star_4" fill-rule="evenodd" clip-rule="evenodd" d="M52.5 12.0232L47.8647 15L49.1249 9.44444L45 5.72965L50.4139 5.27361L52.5 0L54.5861 5.27361L60 5.72965L55.8751 9.44444L57.1353 15L52.5 12.0232Z" fill="#FF8F00"/>
<path id="raiting_star_5" fill-rule="evenodd" clip-rule="evenodd" d="M67.5 12.0232L62.8647 15L64.1249 9.44444L60 5.72965L65.4139 5.27361L67.5 0L69.5861 5.27361L75 5.72965L70.8751 9.44444L72.1353 15L67.5 12.0232Z" fill="#FF8F00"/>
</svg>
