<svg width="14" height="16" viewBox="0 0 14 16" fill="none" xmlns="http://www.w3.org/2000/svg">
<path d="M1.75002 10.4292C1.75002 10.6565 1.65783 10.8746 1.49374 11.0353C1.32964 11.196 1.10708 11.2864 0.87501 11.2864C0.642943 11.2864 0.420381 11.196 0.256285 11.0353C0.0921885 10.8746 0 10.6565 0 10.4292V6.572C0 6.34467 0.0921885 6.12665 0.256285 5.9659C0.420381 5.80515 0.642943 5.71484 0.87501 5.71484C1.10708 5.71484 1.32964 5.80515 1.49374 5.9659C1.65783 6.12665 1.75002 6.34467 1.75002 6.572V10.4292Z" fill="#7CB342"/>
<path d="M14 10.4292C14 10.6565 13.9078 10.8746 13.7437 11.0353C13.5796 11.196 13.3571 11.2864 13.125 11.2864C12.8929 11.2864 12.6704 11.196 12.5063 11.0353C12.3422 10.8746 12.25 10.6565 12.25 10.4292V6.572C12.25 6.34467 12.3422 6.12665 12.5063 5.9659C12.6704 5.80515 12.8929 5.71484 13.125 5.71484C13.3571 5.71484 13.5796 5.80515 13.7437 5.9659C13.9078 6.12665 14 6.34467 14 6.572V10.4292Z" fill="#7CB342"/>
<path d="M6.12502 15.1428C6.12502 15.3702 6.03283 15.5882 5.86874 15.7489C5.70464 15.9097 5.48208 16 5.25001 16C5.01794 16 4.79538 15.9097 4.63129 15.7489C4.46719 15.5882 4.375 15.3702 4.375 15.1428V11.2856C4.375 11.0583 4.46719 10.8403 4.63129 10.6795C4.79538 10.5188 5.01794 10.4285 5.25001 10.4285C5.48208 10.4285 5.70464 10.5188 5.86874 10.6795C6.03283 10.8403 6.12502 11.0583 6.12502 11.2856V15.1428Z" fill="#7CB342"/>
<path d="M9.62502 15.1428C9.62502 15.3702 9.53283 15.5882 9.36874 15.7489C9.20464 15.9097 8.98208 16 8.75001 16C8.51794 16 8.29538 15.9097 8.13128 15.7489C7.96719 15.5882 7.875 15.3702 7.875 15.1428V11.2856C7.875 11.0583 7.96719 10.8403 8.13128 10.6795C8.29538 10.5188 8.51794 10.4285 8.75001 10.4285C8.98208 10.4285 9.20464 10.5188 9.36874 10.6795C9.53283 10.8403 9.62502 11.0583 9.62502 11.2856V15.1428Z" fill="#7CB342"/>
<path d="M2.625 5.71484V12.1431C2.625 12.3704 2.71719 12.5884 2.88128 12.7492C3.04538 12.9099 3.26794 13.0002 3.50001 13.0002H10.5001C10.7322 13.0002 10.9547 12.9099 11.1188 12.7492C11.2829 12.5884 11.3751 12.3704 11.3751 12.1431V5.71484H2.625Z" fill="#7CB342"/>
<path d="M7.00005 1.42847C4.37502 1.42847 2.77594 2.99063 2.625 4.85709H11.3751C11.2237 2.99063 9.62509 1.42847 7.00005 1.42847ZM5.25003 3.82764C5.134 3.82764 5.02272 3.78249 4.94067 3.70212C4.85862 3.62174 4.81253 3.51273 4.81253 3.39907C4.81253 3.2854 4.85862 3.17639 4.94067 3.09602C5.02272 3.01564 5.134 2.97049 5.25003 2.97049C5.36607 2.97049 5.47735 3.01564 5.5594 3.09602C5.64144 3.17639 5.68754 3.2854 5.68754 3.39907C5.68754 3.51273 5.64144 3.62174 5.5594 3.70212C5.47735 3.78249 5.36607 3.82764 5.25003 3.82764ZM8.75007 3.82764C8.63404 3.82764 8.52276 3.78249 8.44071 3.70212C8.35866 3.62174 8.31257 3.51273 8.31257 3.39907C8.31257 3.2854 8.35866 3.17639 8.44071 3.09602C8.52276 3.01564 8.63404 2.97049 8.75007 2.97049C8.86611 2.97049 8.97739 3.01564 9.05944 3.09602C9.14149 3.17639 9.18758 3.2854 9.18758 3.39907C9.18758 3.51273 9.14149 3.62174 9.05944 3.70212C8.97739 3.78249 8.86611 3.82764 8.75007 3.82764Z" fill="#7CB342"/>
<path d="M9.62488 1L8.896 2.07102" stroke="#7CB342" stroke-linecap="round"/>
<path d="M4.375 1L4.9582 1.8923" stroke="#7CB342" stroke-linecap="round"/>
</svg>
